<svg width="358" height="728" viewBox="0 0 358 728" fill="none" xmlns="http://www.w3.org/2000/svg">
<path d="M295.841 0H62.0585C45.5996 0 29.8148 6.54099 18.1765 18.184C6.53828 29.827 0 45.6184 0 62.0841V665.916C0 682.382 6.53828 698.173 18.1765 709.816C29.8148 721.459 45.5996 728 62.0585 728H295.841C303.99 728 312.06 726.394 319.59 723.274C327.119 720.154 333.96 715.581 339.723 709.816C345.485 704.051 350.057 697.207 353.175 689.674C356.294 682.142 357.899 674.069 357.899 665.916V62.0841C357.899 53.9311 356.294 45.8579 353.175 38.3255C350.057 30.7932 345.485 23.9491 339.723 18.184C333.96 12.419 327.119 7.84589 319.59 4.72587C312.06 1.60585 303.99 0 295.841 0ZM338.347 666.239C338.359 671.88 337.26 677.469 335.114 682.685C332.967 687.902 329.815 692.644 325.836 696.642C321.857 700.639 317.131 703.814 311.926 705.984C306.721 708.154 301.14 709.277 295.501 709.29H62.3986C56.7597 709.277 51.1784 708.154 45.9735 705.984C40.7685 703.814 36.0418 700.639 32.0632 696.642C28.0846 692.644 24.932 687.902 22.7854 682.685C20.6389 677.469 19.5404 671.88 19.5527 666.239V61.7609C19.5404 56.1197 20.6389 50.5313 22.7854 45.3148C24.932 40.0983 28.0846 35.3559 32.0632 31.3582C36.0418 27.3606 40.7685 24.1861 45.9735 22.016C51.1784 19.8458 56.7597 18.7226 62.3986 18.7103H295.501C301.14 18.7226 306.721 19.8458 311.926 22.016C317.131 24.1861 321.857 27.3606 325.836 31.3582C329.815 35.3559 332.967 40.0983 335.114 45.3148C337.26 50.5313 338.359 56.1197 338.347 61.7609V666.239Z" fill="black"/>
</svg>
