<svg width="28" height="28" viewBox="0 0 28 28" fill="none" xmlns="http://www.w3.org/2000/svg">
<rect width="28" height="28" rx="6" fill="#FFFCF7"/>
<path d="M14.4996 4.75005C10.2086 4.74948 6.55066 7.94141 5.86364 12.2859C5.17662 16.6304 7.66333 20.8446 11.7345 22.2352C12.173 22.3161 12.33 22.04 12.33 21.8025C12.33 21.5893 12.323 21.0245 12.3203 20.2734C9.88677 20.8131 9.37287 19.0699 9.37287 19.0699C9.21267 18.5275 8.86825 18.0619 8.40208 17.7575C7.61282 17.2008 8.46259 17.2133 8.46259 17.2133C9.02444 17.2924 9.51893 17.6338 9.8017 18.138C10.0411 18.5844 10.4443 18.9142 10.9218 19.0543C11.3994 19.1943 11.9117 19.1329 12.3449 18.8837C12.3856 18.4286 12.583 18.0032 12.9017 17.6838C10.9602 17.458 8.91861 16.688 8.91861 13.2493C8.90783 12.3599 9.22984 11.5001 9.81837 10.8468C9.55208 10.0726 9.58344 9.22342 9.90606 8.47213C9.90606 8.47213 10.6401 8.23016 12.3107 9.3905C13.7435 8.98754 15.2556 8.98754 16.6884 9.3905C18.3599 8.22926 19.0931 8.47213 19.0931 8.47213C19.4172 9.22307 19.4486 10.0728 19.1808 10.8468C19.7714 11.5 20.0932 12.3621 20.0788 13.2529C20.0788 16.7006 18.0354 17.458 16.0869 17.6802C16.5072 18.121 16.7228 18.7257 16.6788 19.3406C16.6788 20.5405 16.6683 21.5084 16.6683 21.8025C16.6683 22.0427 16.8244 22.3215 17.2707 22.2334C21.3402 20.8404 23.8243 16.626 23.1358 12.2826C22.4474 7.93932 18.7897 4.74904 14.4996 4.75005Z" fill="#A8B9E0"/>
</svg>
