<svg width="28" height="28" viewBox="0 0 28 28" fill="none" xmlns="http://www.w3.org/2000/svg">
<rect width="28" height="28" rx="6" fill="#FFFCF7"/>
<path fill-rule="evenodd" clip-rule="evenodd" d="M10.3308 5.62505H18.6692C19.3095 5.62504 19.838 5.62503 20.2685 5.6602C20.7156 5.69673 21.1266 5.77513 21.5127 5.97184C22.1114 6.27689 22.5981 6.76365 22.9032 7.36234C23.093 7.73488 23.1727 8.13066 23.2108 8.55969C23.2531 8.68908 23.2609 8.82631 23.2356 8.95776C23.25 9.31579 23.25 9.7299 23.25 10.2058V16.1579C23.25 16.7982 23.25 17.3267 23.2148 17.7572C23.1783 18.2043 23.0999 18.6153 22.9032 19.0013C22.5981 19.6 22.1114 20.0868 21.5127 20.3918C21.1266 20.5886 20.7156 20.667 20.2685 20.7035C19.838 20.7387 19.3095 20.7387 18.6692 20.7386H10.3308C9.69047 20.7387 9.16201 20.7387 8.73152 20.7035C8.2844 20.667 7.87338 20.5886 7.48732 20.3918C6.88863 20.0868 6.40187 19.6 6.09682 19.0013C5.90011 18.6153 5.82171 18.2043 5.78518 17.7572C5.75 17.3267 5.75001 16.7982 5.75002 16.1579V10.2058C5.75001 9.72991 5.75001 9.31579 5.76445 8.95776C5.73912 8.82631 5.74692 8.68908 5.78917 8.55969C5.82735 8.13066 5.907 7.73488 6.09682 7.36234C6.40187 6.76365 6.88863 6.27689 7.48732 5.97184C7.87338 5.77513 8.2844 5.69673 8.73152 5.6602C9.16201 5.62503 9.69048 5.62504 10.3308 5.62505ZM7.34093 10.491V16.125C7.34093 16.8064 7.34155 17.2696 7.3708 17.6276C7.39929 17.9763 7.45094 18.1547 7.51433 18.2791C7.66685 18.5784 7.91023 18.8218 8.20958 18.9743C8.33399 19.0377 8.51233 19.0894 8.86107 19.1179C9.21909 19.1471 9.68228 19.1477 10.3636 19.1477H18.6364C19.3177 19.1477 19.7809 19.1471 20.1389 19.1179C20.4877 19.0894 20.666 19.0377 20.7904 18.9743C21.0898 18.8218 21.3332 18.5784 21.4857 18.2791C21.5491 18.1547 21.6007 17.9763 21.6292 17.6276C21.6585 17.2696 21.6591 16.8064 21.6591 16.125V10.491L16.465 14.763C16.4491 14.7761 16.4327 14.7885 16.4159 14.8003C16.385 14.8219 16.3544 14.8434 16.3241 14.8647C15.8909 15.1689 15.5105 15.436 15.0772 15.544C14.6982 15.6385 14.3018 15.6385 13.9228 15.544C13.4895 15.436 13.1091 15.1689 12.6759 14.8647C12.6456 14.8434 12.615 14.8219 12.5841 14.8003C12.5673 14.7885 12.5509 14.7761 12.535 14.763L7.34093 10.491ZM21.5999 8.4798C21.5707 8.29135 21.5312 8.17404 21.4857 8.0846C21.3332 7.78525 21.0898 7.54188 20.7904 7.38935C20.666 7.32596 20.4877 7.27432 20.1389 7.24582C19.7809 7.21657 19.3177 7.21595 18.6364 7.21595H10.3636C9.68228 7.21595 9.21909 7.21657 8.86107 7.24582C8.51233 7.27431 8.33399 7.32596 8.20958 7.38935C7.91023 7.54188 7.66685 7.78525 7.51433 8.0846C7.46876 8.17404 7.42926 8.29135 7.40006 8.47979L13.5216 13.5146C14.0799 13.905 14.2007 13.9737 14.3076 14.0004C14.4339 14.0319 14.5661 14.0319 14.6924 14.0004C14.7993 13.9737 14.9201 13.905 15.4784 13.5146L21.5999 8.4798Z" fill="#A8B9E0"/>
</svg>
