<svg width="28" height="28" viewBox="0 0 28 28" fill="none" xmlns="http://www.w3.org/2000/svg">
<rect width="28" height="28" rx="6" fill="#FFFCF7"/>
<path fill-rule="evenodd" clip-rule="evenodd" d="M14.5051 6.32604C16.8444 6.32604 17.1214 6.33629 18.0414 6.37732C18.8964 6.41492 19.3581 6.5585 19.6659 6.67816C20.0728 6.83541 20.367 7.02686 20.6713 7.33112C20.9791 7.63879 21.1672 7.92938 21.3246 8.3362C21.4443 8.64387 21.5879 9.10881 21.6255 9.96005C21.6666 10.8831 21.6768 11.16 21.6768 13.4949C21.6768 15.8333 21.6666 16.1102 21.6255 17.0298C21.5879 17.8844 21.4443 18.346 21.3246 18.6536C21.1672 19.0605 20.9757 19.3545 20.6713 19.6587C20.3635 19.9664 20.0728 20.1544 19.6659 20.3117C19.3581 20.4313 18.893 20.5749 18.0414 20.6125C17.118 20.6535 16.841 20.6638 14.5051 20.6638C12.1659 20.6638 11.8889 20.6535 10.9689 20.6125C10.1139 20.5749 9.65219 20.4313 9.34439 20.3117C8.93741 20.1544 8.6433 19.963 8.33892 19.6587C8.03112 19.351 7.84302 19.0605 7.6857 18.6536C7.56601 18.346 7.42237 17.881 7.38475 17.0298C7.34371 16.1068 7.33345 15.8298 7.33345 13.4949C7.33345 11.1566 7.34371 10.8797 7.38475 9.96005C7.42237 9.10539 7.56601 8.64387 7.6857 8.3362C7.84302 7.92938 8.03454 7.63538 8.33892 7.33112C8.64672 7.02344 8.93741 6.83541 9.34439 6.67816C9.65219 6.5585 10.1173 6.41492 10.9689 6.37732C11.8889 6.33629 12.1659 6.32604 14.5051 6.32604ZM14.5051 4.75005C12.1282 4.75005 11.8307 4.7603 10.8971 4.80133C9.96683 4.84235 9.32729 4.99277 8.77326 5.20814C8.19528 5.43377 7.70622 5.73119 7.22059 6.22006C6.73153 6.70551 6.43399 7.19437 6.20828 7.7687C5.99282 8.32594 5.84234 8.96181 5.8013 9.89167C5.76026 10.8284 5.75 11.1258 5.75 13.5018C5.75 15.8777 5.76026 16.1751 5.8013 17.1084C5.84234 18.0383 5.99282 18.6776 6.20828 19.2314C6.43399 19.8091 6.73153 20.298 7.22059 20.7835C7.70622 21.2689 8.19528 21.5697 8.76984 21.7919C9.32729 22.0073 9.96341 22.1577 10.8936 22.1988C11.8273 22.2398 12.1248 22.25 14.5017 22.25C16.8786 22.25 17.1761 22.2398 18.1098 22.1988C19.04 22.1577 19.6795 22.0073 20.2336 21.7919C20.8081 21.5697 21.2972 21.2689 21.7828 20.7835C22.2685 20.298 22.5694 19.8091 22.7917 19.2348C23.0072 18.6776 23.1577 18.0417 23.1987 17.1118C23.2397 16.1785 23.25 15.8811 23.25 13.5052C23.25 11.1292 23.2397 10.8318 23.1987 9.89851C23.1577 8.96864 23.0072 8.32936 22.7917 7.77554C22.5763 7.19437 22.2787 6.70551 21.7897 6.22006C21.304 5.73461 20.815 5.43377 20.2404 5.21156C19.683 4.99619 19.0469 4.84577 18.1166 4.80474C17.1795 4.7603 16.882 4.75005 14.5051 4.75005ZM14.5051 9.00625C12.0222 9.00625 10.0079 11.0198 10.0079 13.5018C10.0079 15.9837 12.0222 17.9973 14.5051 17.9973C16.988 17.9973 19.0024 15.9837 19.0024 13.5018C19.0024 11.0198 16.988 9.00625 14.5051 9.00625ZM14.5051 16.4179C12.8943 16.4179 11.5879 15.1119 11.5879 13.5018C11.5879 11.8916 12.8943 10.5857 14.5051 10.5857C16.1159 10.5857 17.4224 11.8916 17.4224 13.5018C17.4224 15.1119 16.1159 16.4179 14.5051 16.4179ZM19.1802 9.87797C19.7582 9.87797 20.2302 9.40961 20.2302 8.82844C20.2302 8.25069 19.7582 7.77892 19.1802 7.77892C18.6023 7.77892 18.1303 8.24728 18.1303 8.82844C18.1303 9.40619 18.5988 9.87797 19.1802 9.87797Z" fill="#A8B9E0"/>
</svg>
