<svg width="28" height="28" viewBox="0 0 28 28" fill="none" xmlns="http://www.w3.org/2000/svg">
<rect width="28" height="28" rx="6" fill="#FFFCF7"/>
<path d="M9.55024 6.07542C10.5754 5.0503 12.2374 5.0503 13.2625 6.07542L16.3561 9.16902C16.6978 9.51073 16.6978 10.0647 16.3561 10.4065C16.0144 10.7482 15.4604 10.7482 15.1187 10.4065L12.0251 7.31286C11.6834 6.97115 11.1294 6.97115 10.7877 7.31286L8.3128 9.78773C7.97109 10.1294 7.97109 10.6835 8.3128 11.0252L11.4064 14.1188C11.7481 14.4605 11.7481 15.0145 11.4064 15.3562C11.0647 15.6979 10.5107 15.6979 10.169 15.3562L7.07536 12.2626C6.05024 11.2375 6.05024 9.57542 7.07536 8.5503L9.55024 6.07542Z" fill="#A8B9E0"/>
<path d="M17.5936 11.6439C17.9353 11.3022 18.4893 11.3022 18.831 11.6439L21.9246 14.7375C22.9497 15.7626 22.9497 17.4247 21.9246 18.4498L19.4497 20.9247C18.4246 21.9498 16.7625 21.9498 15.7374 20.9247L12.6438 17.8311C12.3021 17.4894 12.3021 16.9353 12.6438 16.5936C12.9855 16.2519 13.5396 16.2519 13.8813 16.5936L16.9749 19.6872C17.3166 20.0289 17.8706 20.0289 18.2123 19.6872L20.6872 17.2124C21.0289 16.8706 21.0289 16.3166 20.6872 15.9749L17.5936 12.8813C17.2519 12.5396 17.2519 11.9856 17.5936 11.6439Z" fill="#A8B9E0"/>
<path d="M12.3345 10.0971C11.9928 9.75539 11.4387 9.75539 11.097 10.0971C10.7553 10.4388 10.7553 10.9928 11.097 11.3345L16.6655 16.903C17.0072 17.2447 17.5612 17.2447 17.9029 16.903C18.2446 16.5613 18.2446 16.0073 17.9029 15.6656L12.3345 10.0971Z" fill="#A8B9E0"/>
</svg>
